<?xml version="1.0" encoding="UTF-8"?>
<svg id="Ebene_1" xmlns="http://www.w3.org/2000/svg" version="1.1" viewBox="0 0 238.11 136.06">
  <!-- Generator: Adobe Illustrator 29.2.1, SVG Export Plug-In . SVG Version: 2.1.0 Build 116)  -->
  <defs>
    <style>
      .st0 {
        fill: #be1e2d;
      }
    </style>
  </defs>
  <path class="st0" d="M235.52,31.24c-.59-.03-47.91-2.43-70.63-17.53,4.93-3.7,8.16-7.86,9.66-12.45l-1.62-.53c-1.52,4.64-4.93,8.58-9.55,11.94-4.61-3.35-8.03-7.3-9.55-11.94l-1.62.53c1.5,4.59,4.73,8.74,9.66,12.45-22.72,15.1-70.04,17.5-70.63,17.53l-.81.04v33.73c-10.72-1.83-28.46-6.26-38.69-16.42,3.41-3.74,5.67-7.91,6.68-12.47l-1.66-.37c-.99,4.5-3.2,8.34-6.17,11.62-2.98-3.28-5.18-7.12-6.17-11.62l-1.66.37c1.01,4.55,3.27,8.72,6.68,12.47C34.18,63.75,2.17,66.15,1.77,66.18l-.79.05v35.45s1.7,0,1.7,0v-33.87c2.96-.27,13.77-1.46,25.01-5.14,9.92-3.25,17.62-7.59,22.91-12.85,5.29,5.26,13,9.61,22.91,12.85,11.24,3.68,22.04,4.87,25,5.14v33.87s1.7,0,1.7,0v-34.65s0-.79,0-.79l-.79-.05c-.12,0-2.95-.22-7.28-.9v-32.39c3.77-.22,20.13-1.37,37.16-5.14,14.97-3.31,26.35-7.65,34.08-12.96,7.73,5.31,19.11,9.65,34.08,12.96,17.03,3.77,33.39,4.91,37.16,5.14v68.79s1.7,0,1.7,0V31.28s-.81-.04-.81-.04Z"/>
  <path class="st0" d="M49.86,130.13c-7.29,0-13.97-2.61-19.17-6.94l2.83-2.83h17.94s0-5.45,0-5.45h-12.49s3.85-3.85,3.85-3.85h1.6s16.34,0,16.34,0v-5.45s-12.49,0-12.49,0l15.21-15.21v12.49s5.45,0,5.45,0v-16.34s0-5.45,0-5.45h-5.45s-16.34,0-16.34,0v5.45s12.49,0,12.49,0l-15.21,15.21v-12.49s-5.45,0-5.45,0v16.34h0s0,1.6,0,1.6l-3.85,3.85v-12.52s-5.45,0-5.45,0v17.97s-2.83,2.83-2.83,2.83c-4.33-5.19-6.94-11.88-6.94-19.17,0-16.54,13.41-29.96,29.96-29.96s29.96,13.41,29.96,29.96c0,16.54-13.41,29.96-29.96,29.96M49.86,64.74c-19.54,0-35.43,15.9-35.43,35.43,0,19.54,15.9,35.43,35.43,35.43,19.54,0,35.43-15.9,35.43-35.43,0-19.54-15.9-35.43-35.43-35.43"/>
  <g>
    <rect class="st0" x="155.36" y="131.5" width="16.09" height="3.98"/>
    <path class="st0" d="M209.16,79.82l-11.43-12.61-10.67,13.1,2.22,2.8,8.6-10.56,8.73,9.63c7.75,8.2,7.8,16.35.16,24.95l-5.91,6.74c-3.61,4.22-7.89,5-13.03,2.35l9.42-10.85-.81-1.12c-2.7-3.73-5.65-5.71-8.78-5.89-2.84-.16-5.67,1.19-8.18,3.93l-9.42,10.4-4.23-3.74,8.15-9.75c.76-.86,10.44-12.19,1.54-23.99l-12.12-13.74-12.03,13.64-.08.1c-8.9,11.8.77,23.13,1.54,23.99l8.15,9.75-4.23,3.74-9.42-10.41c-2.5-2.73-5.32-4.09-8.17-3.92-3.12.18-6.08,2.16-8.78,5.89l-.81,1.12,9.42,10.85c-5.14,2.64-9.42,1.86-13.05-2.37l-5.9-6.74c-7.63-8.59-7.58-16.74.2-24.97l8.71-9.61,8.6,10.56,2.22-2.8-10.67-13.1-11.41,12.59c-8.97,9.49-9.05,19.74-.25,29.64l5.88,6.71c3.62,4.23,9.92,8.01,19.32,2.01l1.7-1.09-10.28-11.84c1.78-2.13,3.56-3.26,5.31-3.36,2.23-.13,4.17,1.45,5.39,2.78l11.73,12.96,6.93-6.13,6.93,6.13,11.72-12.95c1.23-1.34,3.15-2.91,5.4-2.79,1.75.1,3.53,1.23,5.31,3.36l-10.28,11.84,1.7,1.09c3.51,2.24,6.59,3.12,9.26,3.12,4.47,0,7.79-2.47,10.05-5.11l5.88-6.72c8.81-9.91,8.73-20.16-.22-29.62ZM155.49,96.96l-.06-.07c-.36-.39-8.79-9.62-1.39-19.51l9.37-10.62,9.37,10.62c7.36,9.84-1.03,19.12-1.39,19.51l-7.98,9.54-7.92-9.47Z"/>
    <path class="st0" d="M183.99,69.94l-2.65,3.13,2.21,2.79,3.14-3.72c3.44-4.37,5.56-11.7-3.86-21.74l-19.43-21.51-19.4,21.48c-9.45,10.06-7.33,17.39-3.85,21.81l3.11,3.67,2.21-2.79-2.61-3.09c-3.78-4.8-2.54-10.59,3.71-17.24l16.84-18.64,16.86,18.67c6.22,6.63,7.46,12.42,3.72,17.17Z"/>
  </g>
</svg>